<svg id="mermaidChart3" width="100%" xmlns="http://www.w3.org/2000/svg" height="100%" viewBox="0 0 1378 484"><style type="text/css" title="mermaid-svg-internal-css">/*  */
*, ::before, ::after { box-sizing: inherit;}
.section { padding-top: 1rem; padding-bottom: 1rem;}
.section { stroke: none; opacity: 0.2;}
.section0 { fill: rgba(102, 102, 255, 0.490196);}
.section2 { fill: rgb(255, 244, 0);}
.section1, .section3 { fill: white; opacity: 0.2;}
.sectionTitle0 { fill: rgb(51, 51, 51);}
.sectionTitle1 { fill: rgb(51, 51, 51);}
.sectionTitle2 { fill: rgb(51, 51, 51);}
.sectionTitle { text-anchor: start; font-size: 11px;}
.grid .tick { stroke: lightgrey; opacity: 0.3; shape-rendering: crispEdges;}
.grid path { stroke-width: 0;}
.today { fill: none; stroke: red; stroke-width: 2px;}
.task { stroke-width: 2;}
.taskText { text-anchor: middle; font-size: 11px;}
.taskTextOutsideRight { fill: black; text-anchor: start; font-size: 11px;}
.taskText0, .taskText1, .taskText2, .taskText3 { fill: white;}
.task0, .task1, .task2, .task3 { fill: rgb(138, 144, 221); stroke: rgb(83, 79, 188);}
.taskTextOutside0, .taskTextOutside2 { fill: black;}
.taskTextOutside1, .taskTextOutside3 { fill: black;}
.active0, .active1, .active2, .active3 { fill: rgb(191, 199, 255); stroke: rgb(83, 79, 188);}
.activeText0, .activeText1, .activeText2, .activeText3 { fill: black !important;}
.done0, .done1, .done2, .done3 { stroke: grey; fill: lightgrey; stroke-width: 2;}
.doneText0, .doneText1, .doneText2, .doneText3 { fill: black !important;}
.crit0, .crit1, .crit2, .crit3 { stroke: rgb(255, 136, 136); fill: red; stroke-width: 2;}
.activeCrit0, .activeCrit1, .activeCrit2, .activeCrit3 { stroke: rgb(255, 136, 136); fill: rgb(191, 199, 255); stroke-width: 2;}
.doneCrit0, .doneCrit1, .doneCrit2, .doneCrit3 { stroke: rgb(255, 136, 136); fill: lightgrey; stroke-width: 2; cursor: pointer; shape-rendering: crispEdges;}
.doneCritText0, .doneCritText1, .doneCritText2, .doneCritText3 { fill: black !important;}
.activeCritText0, .activeCritText1, .activeCritText2, .activeCritText3 { fill: black !important;}
.titleText { text-anchor: middle; font-size: 18px; fill: black;}
text { font-family: "trebuchet ms", verdana, arial; font-size: 14px;}
/*  */
</style><g></g><g class="grid" transform="translate(75, 434)"><g class="tick" transform="translate(0,0)" style="opacity: 1;"><line y2="-399" x2="0"></line><text dy="1em" y="3" x="0" fill="#000" stroke="none" font-size="10" style="text-anchor: middle;">w. 01</text></g><g class="tick" transform="translate(537,0)" style="opacity: 1;"><line y2="-399" x2="0"></line><text dy="1em" y="3" x="0" fill="#000" stroke="none" font-size="10" style="text-anchor: middle;">w. 02</text></g><g class="tick" transform="translate(1075,0)" style="opacity: 1;"><line y2="-399" x2="0"></line><text dy="1em" y="3" x="0" fill="#000" stroke="none" font-size="10" style="text-anchor: middle;">w. 03</text></g><path class="domain" d="M0,0V0H1228V0"></path></g><g><rect x="0" y="48" width="1340.5" height="24" class="section section0"></rect><rect x="0" y="72" width="1340.5" height="24" class="section section0"></rect><rect x="0" y="96" width="1340.5" height="24" class="section section0"></rect><rect x="0" y="120" width="1340.5" height="24" class="section section0"></rect><rect x="0" y="144" width="1340.5" height="24" class="section section1"></rect><rect x="0" y="168" width="1340.5" height="24" class="section section1"></rect><rect x="0" y="192" width="1340.5" height="24" class="section section1"></rect><rect x="0" y="216" width="1340.5" height="24" class="section section1"></rect><rect x="0" y="240" width="1340.5" height="24" class="section section1"></rect><rect x="0" y="264" width="1340.5" height="24" class="section section1"></rect><rect x="0" y="288" width="1340.5" height="24" class="section section2"></rect><rect x="0" y="312" width="1340.5" height="24" class="section section2"></rect><rect x="0" y="336" width="1340.5" height="24" class="section section2"></rect><rect x="0" y="360" width="1340.5" height="24" class="section section0"></rect><rect x="0" y="384" width="1340.5" height="24" class="section section0"></rect><rect x="0" y="408" width="1340.5" height="24" class="section section0"></rect></g><g><rect rx="3" ry="3" x="75" y="50" width="154" height="20" class="task  done0"></rect><rect rx="3" ry="3" x="305" y="74" width="231" height="20" class="task  active0"></rect><rect rx="3" ry="3" x="536" y="98" width="383" height="20" class="task  task0"></rect><rect rx="3" ry="3" x="919" y="122" width="384" height="20" class="task  task0"></rect><rect rx="3" ry="3" x="75" y="146" width="77" height="20" class="task  doneCrit1"></rect><rect rx="3" ry="3" x="229" y="170" width="153" height="20" class="task  doneCrit1"></rect><rect rx="3" ry="3" x="382" y="194" width="230" height="20" class="task  activeCrit1"></rect><rect rx="3" ry="3" x="612" y="218" width="384" height="20" class="task  crit1"></rect><rect rx="3" ry="3" x="996" y="242" width="154" height="20" class="task  task1"></rect><rect rx="3" ry="3" x="1150" y="266" width="76" height="20" class="task  task1"></rect><rect rx="3" ry="3" x="229" y="290" width="230" height="20" class="task  active2"></rect><rect rx="3" ry="3" x="459" y="314" width="64" height="20" class="task  task2"></rect><rect rx="3" ry="3" x="459" y="338" width="153" height="20" class="task  task2"></rect><rect rx="3" ry="3" x="612" y="362" width="231" height="20" class="task  task0"></rect><rect rx="3" ry="3" x="843" y="386" width="63" height="20" class="task  task0"></rect><rect rx="3" ry="3" x="906" y="410" width="154" height="20" class="task  task0"></rect><text font-size="11" x="152" y="63.5" text-height="20" class="taskText taskText0  doneText0">Completed task            </text><text font-size="11" x="420.5" y="87.5" text-height="20" class="taskText taskText0 activeText0">Active task               </text><text font-size="11" x="727.5" y="111.5" text-height="20" class="taskText taskText0 ">Future task               </text><text font-size="11" x="1111" y="135.5" text-height="20" class="taskText taskText0 ">Future task2               </text><text font-size="11" x="157" y="159.5" text-height="20" class="taskTextOutsideRight taskTextOutside1  doneCritText1">Completed task in the critical line </text><text font-size="11" x="387" y="183.5" text-height="20" class="taskTextOutsideRight taskTextOutside1  doneCritText1">Implement parser and jison          </text><text font-size="11" x="497" y="207.5" text-height="20" class="taskText taskText1 activeCritText1 critText1">Create tests for parser             </text><text font-size="11" x="804" y="231.5" text-height="20" class="taskText taskText1  critText1">Future task in critical line        </text><text font-size="11" x="1073" y="255.5" text-height="20" class="taskText taskText1 ">Create tests for renderer           </text><text font-size="11" x="1231" y="279.5" text-height="20" class="taskTextOutsideRight taskTextOutside1 ">Add to mermaid                      </text><text font-size="11" x="344" y="303.5" text-height="20" class="taskText taskText2 activeText2">Describe gantt syntax               </text><text font-size="11" x="528" y="327.5" text-height="20" class="taskTextOutsideRight taskTextOutside2 ">Add gantt diagram to demo page      </text><text font-size="11" x="617" y="351.5" text-height="20" class="taskTextOutsideRight taskTextOutside2 ">Add another diagram to demo page    </text><text font-size="11" x="727.5" y="375.5" text-height="20" class="taskText taskText0 ">Describe gantt syntax               </text><text font-size="11" x="911" y="399.5" text-height="20" class="taskTextOutsideRight taskTextOutside0 ">Add gantt diagram to demo page      </text><text font-size="11" x="1065" y="423.5" text-height="20" class="taskTextOutsideRight taskTextOutside0 ">Add another diagram to demo page    </text></g><g><text x="10" y="98" class="sectionTitle sectionTitle0">A section</text><text x="10" y="218" class="sectionTitle sectionTitle1">Critical tasks</text><text x="10" y="326" class="sectionTitle sectionTitle2">Documentation</text><text x="10" y="398" class="sectionTitle sectionTitle0">Last section</text></g><g class="today"><line x1="74719" x2="74719" y1="25" y2="459" class="today"></line></g><text x="689" y="25" class="titleText">Adding GANTT diagram functionality to mermaid</text></svg>